<svg xmlns="http://www.w3.org/2000/svg" xmlns:xlink="http://www.w3.org/1999/xlink" width="276.393" height="111.465" viewBox="0 0 276.393 111.465">
  <defs>
    <linearGradient id="linear-gradient" x1="-0.071" y1="0.557" x2="1.077" y2="0.361" gradientUnits="objectBoundingBox">
      <stop offset="0" stop-color="#f646b2"/>
      <stop offset="0.531" stop-color="#0deef7"/>
      <stop offset="1" stop-color="#7fff10"/>
    </linearGradient>
  </defs>
  <text id="CHAMPAGNE" transform="translate(11.612 84.168) rotate(-2)" fill="#fff" stroke="#000" stroke-width="9" font-size="56" font-family="Anton-Regular, Anton"><tspan x="0" y="0">CHAMPAGNE</tspan></text>
  <path id="Intersection_1" data-name="Intersection 1" d="M179.544,45.1Q177,41.426,177,33.979V13.259q0-6.664,2.968-10.08t8.848-3.416q4.76,0,7.392,1.9a9.8,9.8,0,0,1,3.641,5.544,35.927,35.927,0,0,1,1.008,9.352h-9.409V12.251a6.125,6.125,0,0,0-.476-2.687,1.738,1.738,0,0,0-1.707-.952q-2.745,0-2.744,3.584v23.3a7.633,7.633,0,0,0,.56,3.3,2.276,2.276,0,0,0,3.92,0,7.647,7.647,0,0,0,.56-3.3V28.6H188.98V20.315H200.74v28h-3.864l-1.624-4.032a8.552,8.552,0,0,1-7.952,4.48Q182.092,48.763,179.544,45.1Zm-176.4.364q-3.164-3.3-3.164-9.072V14.211Q-.02,7.043,2.836,3.4T11.8-.237a12.349,12.349,0,0,1,8.568,2.912q3.248,2.912,3.248,8.4v8.287H14.036V12.251a5.687,5.687,0,0,0-.5-2.856A1.9,1.9,0,0,0,11.8,8.611a1.816,1.816,0,0,0-1.764.9,5.769,5.769,0,0,0-.475,2.632V36.275a5.266,5.266,0,0,0,.56,2.772,1.866,1.866,0,0,0,1.679.868q2.241,0,2.24-3.64V27.595h9.689v9.072q0,12.1-12.152,12.1A11.129,11.129,0,0,1,3.144,45.459Zm229.292,2.856V.211H251.7v9.3h-9.464v9.352h9.072v9.072h-9.072V38.963h10.08v9.352Zm-13.664,0-4.816-24.08v24.08h-9.409V.211h9.913l4.424,23.017V.211h9.3v48.1Zm-53.424,0-.672-7.784h-5.824l-.56,7.784H148.94l4.648-48.1h16.3l4.592,48.1ZM159.58,32.859h4.368L161.82,8.387h-.448ZM123.8,48.315V.211h12.712q5.769,0,8.232,3.724T147.2,14.827q0,7.169-2.184,10.808t-7.84,3.64h-3.92v19.04Zm9.463-27.72h.561a4.091,4.091,0,0,0,2.548-.643,3.067,3.067,0,0,0,1.064-1.849,17.852,17.852,0,0,0,.252-3.443,10.411,10.411,0,0,0-.672-4.369,2.708,2.708,0,0,0-2.687-1.344h-1.065Zm-22.512,27.72V13.651L105.2,48.315H96.58L90.7,13.651V48.315H82.02V.211H96.692l4.032,29.345L104.756.211H119.54v48.1Zm-40.768,0-.671-7.784H63.484l-.561,7.784H53.572L58.22.211h16.3l4.593,48.1ZM64.211,32.859H68.58L66.451,8.387H66ZM41.027,48.315V26.475H36.491V48.315H26.915V.211h9.576V17.4h4.536V.211H50.6v48.1Z" transform="matrix(0.999, -0.035, 0.035, 0.999, 10.779, 35.904)" fill="url(#linear-gradient)"/>
</svg>
